{"title":"Days Of Thunder (1990) - BRRip - 720p - Tamil &amp; Eng - x264 -","uid":9262965,"size":890190241,"categoryP":"video","categoryS":"hd___movies","magnet":"?xt=urn:btih:3f5530291a8ea5a463c12bf3c95eb4c8441fb0aa&amp;dn=Days+Of+Thunder+%281990%29+-+BRRip+-+720p+-+Tamil+%26amp%3B+Eng+-+x264+-&amp;tr=udp%3A%2F%2Ftracker.openbittorrent.com%3A80&amp;tr=udp%3A%2F%2Fopen.demonii.com%3A1337&amp;tr=udp%3A%2F%2Ftracker.coppersurfer.tk%3A6969&amp;tr=udp%3A%2F%2Fexodus.desync.com%3A6969","seeders":1,"leechers":0,"uploader":"Hacking_Guys","files":2,"time":1385652421,"description":"[CENTER]Days Of Thunder (1990) - BRRip - 720p - Tamil &amp; Eng - x264 - 850MB\n\n\n\nMedia Info\n\n[CODE]\nGeneral\nFormat                                   : MPEG-4\nFormat profile                           : Base Media\nCodec ID                                 : isom\nFile size                                : 849 MiB\nDuration                                 : 1h 47mn\nOverall bit rate mode                    : Variable\nOverall bit rate                         : 1 106 Kbps\nEncoded date                             : UTC 2013-11-27 15:50:30\nTagged date                              : UTC 2013-11-27 15:50:30\n\nVideo\nID                                       : 1\nFormat                                   : AVC\nFormat/Info                              : Advanced Video Codec\nFormat profile                           : &lt;a class=&quot;__cf_email__&quot; href=&quot;/cdn-cgi/l/email-protection&quot; data-cfemail=&quot;246c4d434c6468100a14&quot;&gt;[email&amp;#160;protected]&lt;/a&gt;&lt;script cf-hash='f9e31' type=&quot;text/javascript&quot;&gt;\n/* &lt;![CDATA[ */!function(){try{var t=&quot;currentScript&quot;in document?document.currentScript:function(){for(var t=document.getElementsByTagName(&quot;script&quot;),e=t.length;e--;)if(t[e].getAttribute(&quot;cf-hash&quot;))return t[e]}();if(t&amp;&amp;t.previousSibling){var e,r,n,i,c=t.previousSibling,a=c.getAttribute(&quot;data-cfemail&quot;);if(a){for(e=&quot;&quot;,r=parseInt(a.substr(0,2),16),n=2;a.length-n;n+=2)i=parseInt(a.substr(n,2),16)^r,e+=String.fromCharCode(i);e=document.createTextNode(e),c.parentNode.replaceChild(e,c)}}}catch(u){}}();/* ]]&gt; */&lt;/script&gt;\nFormat settings, CABAC                   : Yes\nFormat settings, ReFrames                : 8 frames\nCodec ID                                 : avc1\nCodec ID/Info                            : Advanced Video Coding\nDuration                                 : 1h 47mn\nBit rate mode                            : Variable\nBit rate                                 : 878 Kbps\nMaximum bit rate                         : 25.0 Mbps\nWidth                                    : 1 280 pixels\nHeight                                   : 534 pixels\nDisplay aspect ratio                     : 2.40:1\nFrame rate mode                          : Constant\nFrame rate                               : 23.976 fps\nColor space                              : YUV\nChroma subsampling                       : 4:2:0\nBit depth                                : 8 bits\nScan type                                : Progressive\nBits/(Pixel*Frame)                       : 0.054\nStream size                              : 673 MiB (79%)\nWriting library                          : x264 core 120 r2120 0c7dab9\nEncoding settings                        : cabac=1 / ref=8 / deblock=1:0:0 / analyse=0x3:0x133 / me=umh / subme=9 / psy=1 / psy_rd=1.00:0.00 / mixed_ref=1 / me_range=16 / chroma_me=1 / trellis=2 / 8x8dct=1 / cqm=0 / deadzone=21,11 / fast_pskip=1 / chroma_qp_offset=-2 / threads=6 / sliced_threads=0 / nr=0 / decimate=1 / interlaced=0 / bluray_compat=0 / constrained_intra=0 / bframes=3 / b_pyramid=0 / b_adapt=2 / b_bias=0 / direct=3 / weightb=1 / open_gop=0 / weightp=2 / keyint=240 / keyint_min=24 / scenecut=40 / intra_refresh=0 / rc_lookahead=60 / rc=2pass / mbtree=1 / bitrate=878 / ratetol=1.0 / qcomp=0.60 / qpmin=0 / qpmax=69 / qpstep=4 / cplxblur=20.0 / qblur=0.5 / vbv_maxrate=25000 / vbv_bufsize=25000 / nal_hrd=vbr / ip_ratio=1.40 / aq=1:1.00\nEncoded date                             : UTC 2012-02-16 02:49:28\nTagged date                              : UTC 2013-11-27 15:51:15\n\nAudio #1\nID                                       : 2\nFormat                                   : MPEG Audio\nFormat version                           : Version 1\nFormat profile                           : Layer 3\nCodec ID                                 : 6B\nDuration                                 : 1h 47mn\nDuration_FirstFrame                      : -17ms\nBit rate mode                            : Constant\nBit rate                                 : 128 Kbps\nMaximum bit rate                         : 132 Kbps\nChannel(s)                               : 2 channels\nSampling rate                            : 44.1 KHz\nCompression mode                         : Lossy\nStream size                              : 98.2 MiB (12%)\nTitle                                    : Tamil\nEncoded date                             : UTC 2013-11-27 15:50:49\nTagged date                              : UTC 2013-11-27 15:51:15\n\nAudio #2\nID                                       : 3\nFormat                                   : AAC\nFormat/Info                              : Advanced Audio Codec\nFormat profile                           : LC\nCodec ID                                 : 40\nDuration                                 : 1h 47mn\nBit rate mode                            : Variable\nBit rate                                 : 96.0 Kbps\nMaximum bit rate                         : 100 Kbps\nChannel(s)                               : 2 channels\nChannel positions                        : Front: L R\nSampling rate                            : 48.0 KHz\nCompression mode                         : Lossy\nStream size                              : 73.7 MiB (9%)\nTitle                                    : English\nLanguage                                 : English\nEncoded date                             : UTC 2012-02-16 02:49:42\nTagged date                              : UTC 2013-11-27 15:51:15\n\nText\nID                                       : 4\nFormat                                   : Timed Text\nCodec ID                                 : tx3g\nDuration                                 : 1h 43mn\nBit rate mode                            : Variable\nBit rate                                 : 49 bps\nStream size                              : 36.9 KiB (0%)\nEncoded date                             : UTC 2013-11-27 15:51:15\nTagged date                              : UTC 2013-11-27 15:51:15\n[/CODE]\n\n[B]Credits:-Tramanga[/B]\n\n[/CENTER]","torrent":{"xt":"urn:btih:3f5530291a8ea5a463c12bf3c95eb4c8441fb0aa","amp;dn":"Days+Of+Thunder+%281990%29+-+BRRip+-+720p+-+Tamil+%26amp%3B+Eng+-+x264+-","amp;tr":["udp%3A%2F%2Ftracker.openbittorrent.com%3A80","udp%3A%2F%2Fopen.demonii.com%3A1337","udp%3A%2F%2Ftracker.coppersurfer.tk%3A6969","udp%3A%2F%2Fexodus.desync.com%3A6969"],"infoHash":"3f5530291a8ea5a463c12bf3c95eb4c8441fb0aa","infoHashBuffer":{"type":"Buffer","data":[63,85,48,41,26,142,165,164,99,193,43,243,201,94,180,200,68,31,176,170]},"announce":[],"urlList":[]}}